<?xml version="1.0" encoding="UTF-8" standalone="no"?>
<!-- Created with Inkscape (http://www.inkscape.org/) -->

<svg
   width="60mm"
   height="60mm"
   viewBox="0 0 60 60.000001"
   version="1.1"
   id="svg5"
   inkscape:version="1.1 (c68e22c387, 2021-05-23)"
   sodipodi:docname="orchid_w_background.svg"
   inkscape:export-filename="D:\Downloads\bitmap.png"
   inkscape:export-xdpi="471.6825"
   inkscape:export-ydpi="471.6825"
   xmlns:inkscape="http://www.inkscape.org/namespaces/inkscape"
   xmlns:sodipodi="http://sodipodi.sourceforge.net/DTD/sodipodi-0.dtd"
   xmlns="http://www.w3.org/2000/svg"
   xmlns:svg="http://www.w3.org/2000/svg">
  <sodipodi:namedview
     id="namedview7"
     pagecolor="#505050"
     bordercolor="#ffffff"
     borderopacity="1"
     inkscape:pageshadow="0"
     inkscape:pageopacity="0"
     inkscape:pagecheckerboard="1"
     inkscape:document-units="mm"
     showgrid="false"
     fit-margin-top="0"
     fit-margin-left="0"
     fit-margin-right="0"
     fit-margin-bottom="0"
     inkscape:zoom="1.3416246"
     inkscape:cx="-57.393105"
     inkscape:cy="107.70524"
     inkscape:window-width="1920"
     inkscape:window-height="1027"
     inkscape:window-x="-8"
     inkscape:window-y="-8"
     inkscape:window-maximized="1"
     inkscape:current-layer="layer2" />
  <defs
     id="defs2">
    <mask
       maskUnits="userSpaceOnUse"
       id="mask7271">
      <path
         style="fill:#ffffff;fill-opacity:1;stroke:#000000;stroke-width:0.264583px;stroke-linecap:butt;stroke-linejoin:miter;stroke-opacity:1"
         d="m 85.393607,82.910339 c 0.368371,-0.0037 0.736473,-0.0076 1.104318,-0.01175 0.979392,0.01805 1.958488,0.03583 2.937335,0.05335 -0.208608,-0.490418 -0.417465,-0.981083 -0.626594,-1.47202 0.187579,-0.373094 0.374888,-0.746432 0.561938,-1.120047 4.549809,-2.572523 9.099169,-5.145207 13.648356,-7.718211 0.41814,0.0016 1.25362,0.0039 1.25362,0.0039 l 13.82521,7.922573 0.62877,1.084633 0.882,1.249852 1.26368,-0.01196 1.10823,0.02358 3.71699,0.185592 -0.0493,-5.176795 -2.14467,-3.106071 -9.31822,-5.12749 -9.86056,-5.867032 -3.40189,-0.02466 -16.22062,10.328934 -3.697711,3.18003 0.591635,5.423307 3.797493,0.180261"
         id="path7273" />
    </mask>
  </defs>
  <g
     inkscape:groupmode="layer"
     id="layer2"
     inkscape:label="Layer 2"
     transform="translate(-3.3286819,-3.1314735)">
    <circle
       style="fill:#ffffff;fill-opacity:1;fill-rule:evenodd;stroke:none;stroke-width:1.32292;stroke-linecap:square;stroke-linejoin:round"
       id="path7413"
       cx="33.328682"
       cy="33.131474"
       r="30"
       inkscape:export-filename="D:\Downloads\bitmap.png"
       inkscape:export-xdpi="471.6825"
       inkscape:export-ydpi="471.6825" />
  </g>
  <g
     inkscape:label="Layer 1"
     inkscape:groupmode="layer"
     id="layer1"
     transform="translate(-84.920291,-126.45756)">
    <path
       d="m 95.799843,84.254344 7.219117,-4.032009 v -7.580672 a 3.6284252,3.6284252 0 0 1 -2.14569,-1.241823 l -11.565538,6.692515 c 0.137538,0.385128 0.212219,0.797757 0.212219,1.230054 0,0.361528 -0.05109,0.707356 -0.149346,1.037465 z m 4.460377,-13.903779 a 3.6276391,3.6276391 0 0 1 -0.23187,-1.277203 c 0,-1.002114 0.40479,-1.9099 1.06106,-2.566186 0.65628,-0.656287 1.56409,-1.061055 2.5662,-1.061055 1.00211,0 1.90988,0.404768 2.56618,1.061055 a 3.6174216,3.6174216 0 0 1 1.06105,2.566186 c 0,0.440147 -0.0786,0.860636 -0.22006,1.249694 l 11.62055,6.720024 c 0.0825,-0.0983 0.16505,-0.196488 0.25543,-0.286868 a 3.6174216,3.6174216 0 0 1 2.56619,-1.061065 c 1.00211,0 1.90992,0.404779 2.5662,1.061065 a 3.6174216,3.6174216 0 0 1 1.06106,2.566197 c 0,1.002094 -0.40478,1.90596 -1.06106,2.562246 a 3.6130989,3.6130989 0 0 1 -2.09068,1.029606 v 13.3261 c 0.81348,0.106051 1.54051,0.479457 2.09068,1.029625 0.65628,0.656296 1.06106,1.564072 1.06106,2.562267 a 3.6241024,3.6241024 0 0 1 -3.62726,3.627237 3.6174216,3.6174216 0 0 1 -2.80984,-1.33222 l -11.63626,6.72791 c 0.1414,0.38906 0.22007,0.80954 0.22007,1.24967 0,1.00212 -0.40476,1.90991 -1.06106,2.56619 a 3.6174216,3.6174216 0 0 1 -2.56619,1.06107 c -1.0021,0 -1.9099,-0.40477 -2.5662,-1.06107 -0.65627,-0.65628 -1.06104,-1.56407 -1.06104,-2.56619 0,-0.44799 0.0826,-0.88027 0.23185,-1.27719 L 88.694677,102.143 a 3.6174216,3.6174216 0 0 1 -2.80198,1.32043 c -1.002115,0 -1.909902,-0.40477 -2.566187,-1.06106 -0.652354,-0.65628 -1.057128,-1.56408 -1.057128,-2.566197 0,-1.002115 0.404774,-1.905971 1.061058,-2.562247 a 3.6319621,3.6319621 0 0 1 2.063167,-1.029625 V 82.910341 A 3.607597,3.607597 0 0 1 83.33044,81.880726 3.6013093,3.6013093 0 0 1 82.269382,79.318469 c 0,-1.002115 0.404774,-1.909911 1.061058,-2.566187 a 3.6174216,3.6174216 0 0 1 2.566193,-1.061054 3.6174216,3.6174216 0 0 1 2.813758,1.336143 z m 6.19343,1.025685 a 3.6123129,3.6123129 0 0 1 -2.18107,1.269333 v 7.576752 l 7.20341,4.173478 6.6218,-3.827661 c -0.14542,-0.389058 -0.22007,-0.813465 -0.22007,-1.249683 0,-0.424427 0.0747,-0.837056 0.20828,-1.214314 z m 14.41859,11.514441 a 3.5993442,3.5993442 0 0 1 -1.93348,-1.006036 c -0.0747,-0.07469 -0.14541,-0.149339 -0.2122,-0.231868 l -6.61,3.81981 v 8.166218 l 6.6375,3.831599 c 0.059,-0.0668 0.11794,-0.133678 0.18078,-0.196488 a 3.6130989,3.6130989 0 0 1 1.93347,-1.006034 V 82.890691 Z m -2.77839,18.183389 c -0.14155,-0.38512 -0.21613,-0.80169 -0.21613,-1.233967 0,-0.455868 0.0825,-0.892085 0.23971,-1.296854 l -6.42137,-3.70584 -7.42348,4.314977 v 7.384174 a 3.6123129,3.6123129 0 0 1 2.18107,1.26933 z m -17.22058,6.70431 a 3.6284252,3.6284252 0 0 1 2.14569,-1.24182 v -7.419554 l -7.450986,-4.322828 -6.323114,3.650831 c 0.176838,0.428349 0.279013,0.899926 0.279013,1.395094 0,0.440137 -0.07857,0.860637 -0.220076,1.249677 z M 86.497895,96.260012 c 0.758466,0.125808 1.438316,0.491237 1.960991,1.013914 0.03935,0.0394 0.0747,0.0786 0.110056,0.11793 l 6.441016,-3.717621 v -8.437386 l -6.20129,-3.756931 c -0.106051,0.145409 -0.223996,0.279028 -0.349757,0.404788 A 3.6370708,3.6370708 0 0 1 86.497925,82.89859 Z M 85.900553,81.692087 c 0.01574,0 0.03149,-0.004 0.04723,-0.004 h 0.03149 a 2.3579066,2.3579066 0 0 0 1.595518,-0.691717 2.3669451,2.3669451 0 0 0 0.69558,-1.67804 c 0,-0.656287 -0.267235,-1.249705 -0.69558,-1.678052 -0.428358,-0.428358 -1.021763,-0.695576 -1.678042,-0.695576 -0.656292,0 -1.249697,0.267218 -1.678042,0.695576 a 2.3669451,2.3669451 0 0 0 -0.695588,1.678052 c 0,0.656276 0.267231,1.249683 0.695588,1.67804 a 2.3696962,2.3696962 0 0 0 1.681964,0.695577 z m 19.429157,26.742603 a 2.3669451,2.3669451 0 0 0 -1.67804,-0.6956 c -0.65628,0 -1.24969,0.26724 -1.67804,0.6956 -0.42835,0.42833 -0.69559,1.02174 -0.69559,1.67804 0,0.65628 0.26724,1.24968 0.69559,1.67804 0.42835,0.42834 1.02176,0.69558 1.67804,0.69558 0.6563,0 1.24969,-0.26724 1.67804,-0.69558 0.42835,-0.42836 0.6956,-1.02176 0.6956,-1.67804 0,-0.6563 -0.2633,-1.24971 -0.6956,-1.67804 z m 0,-41.039369 a 2.3669451,2.3669451 0 0 0 -1.67804,-0.695577 c -0.65628,0 -1.24969,0.26723 -1.67804,0.695577 -0.42835,0.428358 -0.69559,1.021764 -0.69559,1.678041 0,0.656287 0.26724,1.249694 0.69559,1.678042 a 2.3669451,2.3669451 0 0 0 1.67804,0.695595 c 0.6563,0 1.24969,-0.267238 1.67804,-0.695595 a 2.3669451,2.3669451 0 0 0 0.6956,-1.678042 c 0,-0.656277 -0.2633,-1.249683 -0.6956,-1.678041 z m 17.84936,30.76675 a 2.3669451,2.3669451 0 0 0 -1.67805,-0.695597 c -0.65628,0 -1.24968,0.26724 -1.67804,0.695597 a 2.3669451,2.3669451 0 0 0 -0.69559,1.678042 c 0,0.656277 0.26723,1.249677 0.69559,1.678037 a 2.3669451,2.3669451 0 0 0 1.67804,0.69558 c 0.65628,0 1.24969,-0.26723 1.67805,-0.69558 a 2.3669451,2.3669451 0 0 0 0.69558,-1.678037 c 0,-0.656297 -0.26329,-1.249694 -0.69558,-1.678042 z m -35.604395,0 c -0.42836,-0.428357 -1.021764,-0.695597 -1.678042,-0.695597 -0.656292,0 -1.249698,0.26724 -1.678042,0.695597 a 2.3669451,2.3669451 0 0 0 -0.695589,1.678042 c 0,0.656277 0.26723,1.249677 0.695589,1.678037 0.428344,0.42835 1.02175,0.69558 1.678042,0.69558 0.656278,0 1.249682,-0.26723 1.678042,-0.69558 a 2.3669451,2.3669451 0 0 0 0.695579,-1.678037 2.3834505,2.3834505 0 0 0 -0.695579,-1.678042 z M 119.38677,80.391314 c 0.0315,0.0315 0.055,0.0707 0.0786,0.110056 0.0235,0.0394 0.0394,0.0786 0.0549,0.121789 0.0905,0.133679 0.19257,0.259369 0.3026,0.373338 a 2.3669451,2.3669451 0 0 0 1.67804,0.695587 c 0.65629,0 1.24969,-0.26723 1.67804,-0.695587 a 2.3669451,2.3669451 0 0 0 0.69559,-1.678031 c 0,-0.656297 -0.26722,-1.249694 -0.69559,-1.678042 a 2.3669451,2.3669451 0 0 0 -1.67804,-0.695576 c -0.65629,0 -1.24969,0.267219 -1.67804,0.695576 a 2.3669451,2.3669451 0 0 0 -0.69559,1.678042 c 0.004,0.389057 0.0983,0.750595 0.25937,1.072844 z M 96.184966,93.540575 a 0.66296472,0.66296472 0 0 1 0.168982,0.345818 l 6.731822,3.95735 v -7.81252 l -6.900804,-4.106698 z m 14.760494,-7.509941 -6.68466,4.004509 v 7.81647 l 6.68466,-3.9495 z m -7.30166,-4.869075 -6.52353,3.90233 6.55891,3.9495 6.37029,-3.86696 z"
       fill-rule="evenodd"
       clip-rule="evenodd"
       id="path824"
       style="stroke-width:0.392984"
       mask="url(#mask7271)"
       transform="matrix(1.1447756,0,0,1.1447756,-3.4314134,55.154968)"
       inkscape:export-filename="D:\Downloads\bitmap.png"
       inkscape:export-xdpi="471.6825"
       inkscape:export-ydpi="471.6825" />
    <g
       id="g892"
       transform="matrix(0.10517546,0,0,0.10517546,88.341635,131.56982)"
       style="fill:#7ed957;fill-opacity:1"
       inkscape:export-filename="D:\Downloads\bitmap.png"
       inkscape:export-xdpi="471.6825"
       inkscape:export-ydpi="471.6825">
      <g
         id="g837"
         style="fill:#7ed957;fill-opacity:1">
	<g
   id="g835"
   style="fill:#7ed957;fill-opacity:1">
		<path
   d="m 509.849,323.219 c -22.609,-24.277 -55.462,-38.877 -97.895,-43.603 31.984,-33.051 49.567,-73.627 48.712,-113.552 -0.092,-4.309 -3.576,-7.774 -7.884,-7.844 -39.842,-0.65 -88.935,16.15 -128.921,43.513 0.003,-0.438 0.016,-0.878 0.016,-1.316 0,-55.744 -22.808,-107.805 -62.576,-142.835 -3.029,-2.668 -7.569,-2.668 -10.598,0 -39.768,35.029 -62.577,87.091 -62.577,142.834 0,0.388 0.012,0.777 0.014,1.165 -39.377,-27.283 -88.406,-44.008 -128.919,-43.362 -4.31,0.07 -7.793,3.535 -7.884,7.844 -0.855,39.926 16.727,80.5 48.711,113.551 -42.435,4.726 -75.289,19.328 -97.898,43.606 -2.867,3.078 -2.867,7.849 0,10.927 31.878,34.229 79.21,53.861 129.859,53.861 17.233,0 33.184,-1.349 47.844,-4.014 -0.185,1.523 -0.278,3.04 -0.278,4.548 0,27.039 26.923,51.626 73.865,67.455 0.831,0.28 1.696,0.42 2.561,0.42 0.865,0 1.731,-0.14 2.561,-0.42 46.942,-15.829 73.865,-40.415 73.865,-67.455 0,-1.507 -0.1,-3.026 -0.286,-4.551 14.661,2.666 30.614,4.015 47.849,4.015 50.65,0 97.982,-19.631 129.859,-53.861 2.867,-3.077 2.867,-7.848 0,-10.926 z M 322.639,222.416 c 35.898,-27.556 83.535,-46.213 121.89,-48.034 -1.785,37.341 -21.547,75 -55.112,104.597 13.371,-19.202 20.426,-40.522 19.949,-61.625 -0.097,-4.308 -3.583,-7.769 -7.892,-7.835 -27.993,-0.436 -52.727,3.009 -79.727,19.919 0.342,-2.336 0.632,-4.678 0.892,-7.022 z m 0.163,25.615 c 24.23,-17.387 45.481,-22.059 70.296,-22.48 -2.068,24.877 -16.49,49.86 -40.449,69.593 -18.435,15.184 -40.736,25.782 -63.997,30.8 22.693,-18.482 35.225,-41.391 35.225,-65.67 -0.001,-4.125 -0.364,-8.211 -1.075,-12.243 z M 256.001,74.498 c 33.034,31.85 51.842,77.319 51.842,125.92 0,4.438 -0.166,8.89 -0.491,13.338 -10.975,-14.52 -27.159,-27.4 -47.792,-37.623 -2.243,-1.112 -4.876,-1.112 -7.118,0 -20.633,10.223 -36.816,23.103 -47.792,37.623 -0.326,-4.448 -0.491,-8.9 -0.491,-13.338 0,-48.602 18.808,-94.07 51.842,-125.92 z m 0,117.816 c 33.008,17.37 51.842,41.981 51.842,67.961 0,25.981 -18.834,50.591 -51.842,67.961 -33.008,-17.37 -51.842,-41.98 -51.842,-67.961 0,-25.981 18.834,-50.592 51.842,-67.961 z m -32.636,133.643 c -23.264,-5.016 -45.576,-15.628 -64.013,-30.814 -23.964,-19.736 -38.387,-44.729 -40.449,-69.611 26.168,0.328 46.268,4.827 70.302,22.468 -0.715,4.042 -1.08,8.137 -1.08,12.274 0.001,24.285 12.539,47.199 35.24,65.683 z M 67.472,174.363 c 39.4,1.689 86.125,19.996 121.888,48.024 0.254,2.295 0.538,4.587 0.871,6.873 -26.374,-16.901 -49.849,-20.199 -79.703,-19.739 -4.309,0.066 -7.794,3.526 -7.892,7.835 -0.477,21.103 6.578,42.425 19.95,61.626 C 89.013,249.377 69.249,211.711 67.472,174.363 Z m 64.537,197.613 C 88.612,371.975 48.002,356.307 19.318,328.741 c 22.265,-20.536 54.676,-32.054 96.589,-34.356 34.131,28.66 76.762,46.364 119.874,50.127 -24.775,18.233 -59.566,27.464 -103.772,27.464 z m 123.992,67.948 c -37.876,-13.266 -60.393,-32.374 -60.393,-51.381 0,-2.762 0.525,-5.562 1.595,-8.488 23.63,-6.52 43.287,-17.036 58.797,-31.497 15.505,14.457 35.157,24.971 58.779,31.491 1.078,2.945 1.615,5.743 1.615,8.495 0,19.006 -22.516,38.114 -60.393,51.38 z M 379.99,371.972 c -44.205,0 -78.995,-9.231 -103.77,-27.461 43.111,-3.765 85.747,-21.469 119.876,-50.129 41.91,2.303 74.32,13.821 96.585,34.357 -28.683,27.566 -69.293,43.233 -112.691,43.233 z"
   id="path833"
   style="fill:#7ed957;fill-opacity:1" />

	</g>

</g>
      <g
         id="g839"
         style="fill:#7ed957;fill-opacity:1">
</g>
      <g
         id="g841"
         style="fill:#7ed957;fill-opacity:1">
</g>
      <g
         id="g843"
         style="fill:#7ed957;fill-opacity:1">
</g>
      <g
         id="g845"
         style="fill:#7ed957;fill-opacity:1">
</g>
      <g
         id="g847"
         style="fill:#7ed957;fill-opacity:1">
</g>
      <g
         id="g849"
         style="fill:#7ed957;fill-opacity:1">
</g>
      <g
         id="g851"
         style="fill:#7ed957;fill-opacity:1">
</g>
      <g
         id="g853"
         style="fill:#7ed957;fill-opacity:1">
</g>
      <g
         id="g855"
         style="fill:#7ed957;fill-opacity:1">
</g>
      <g
         id="g857"
         style="fill:#7ed957;fill-opacity:1">
</g>
      <g
         id="g859"
         style="fill:#7ed957;fill-opacity:1">
</g>
      <g
         id="g861"
         style="fill:#7ed957;fill-opacity:1">
</g>
      <g
         id="g863"
         style="fill:#7ed957;fill-opacity:1">
</g>
      <g
         id="g865"
         style="fill:#7ed957;fill-opacity:1">
</g>
      <g
         id="g867"
         style="fill:#7ed957;fill-opacity:1">
</g>
    </g>
  </g>
</svg>
